<?xml version="1.0" encoding="utf-8"?>
<!-- Generator: Adobe Illustrator 19.2.1, SVG Export Plug-In . SVG Version: 6.00 Build 0)  -->
<svg version="1.1" id="Layer_1" xmlns="http://www.w3.org/2000/svg" xmlns:xlink="http://www.w3.org/1999/xlink" x="0px" y="0px"
	 viewBox="0 0 354 354" style="enable-background:new 0 0 354 354;" xml:space="preserve">
<style type="text/css">
	.st0{fill-rule:evenodd;clip-rule:evenodd;fill:#203451;}
	.st1{fill:#FFFFFF;}
	.st2{fill-rule:evenodd;clip-rule:evenodd;fill:#FF931E;}
	.st3{fill-rule:evenodd;clip-rule:evenodd;fill:#FFFFFF;stroke:#FFFFFF;stroke-width:4;stroke-miterlimit:10;}
	.st4{fill-rule:evenodd;clip-rule:evenodd;fill:#ED1C24;}
	.st5{fill-rule:evenodd;clip-rule:evenodd;}
	.st6{fill-rule:evenodd;clip-rule:evenodd;fill:#FFFFFF;}
</style>
<circle class="st0" cx="177" cy="177" r="177"/>
<g>
	<path class="st1" d="M54.3,210.1l-4.9,0.8l-1-6.1l-22,3.6L24.5,197l22-3.6l-1-6.1l4.9-0.8L54.3,210.1z"/>
	<path class="st1" d="M32.5,231.7c-0.7-1.9-1.2-3.5-1.5-4.9c-0.3-1.4-0.4-2.6-0.4-3.6c0-1,0.2-1.8,0.4-2.5s0.6-1.2,1-1.7
		c0.4-0.4,0.8-0.8,1.3-1c0.5-0.2,0.9-0.4,1.3-0.6l13.7-5.1c0.4-0.2,0.9-0.3,1.4-0.4c0.5-0.1,1-0.1,1.6-0.1s1.2,0.3,1.8,0.6
		c0.6,0.3,1.3,0.9,1.9,1.6c0.7,0.8,1.3,1.8,2,3s1.4,2.8,2.1,4.7c0.7,1.9,1.2,3.5,1.5,4.9c0.3,1.4,0.4,2.6,0.4,3.6s-0.1,1.8-0.4,2.5
		c-0.3,0.7-0.6,1.2-1,1.7c-0.4,0.4-0.8,0.8-1.3,1c-0.5,0.2-0.9,0.4-1.3,0.6l-13.7,5.1c-0.4,0.2-0.9,0.3-1.4,0.4
		c-0.5,0.1-1.1,0.1-1.6,0.1c-0.6-0.1-1.2-0.3-1.8-0.6c-0.6-0.3-1.3-0.9-2-1.6s-1.4-1.8-2.1-3C33.9,235.2,33.2,233.6,32.5,231.7z
		 M36.4,229.1l0.8,2.1l18.1-6.8l-0.8-2.1L36.4,229.1z"/>
	<path class="st1" d="M50.3,257.3l1.2,1.9l19.6-12.5l6.2,9.7l-17.6,11.2c-0.4,0.2-0.8,0.5-1.3,0.7c-0.5,0.2-1,0.4-1.6,0.4
		s-1.2,0-1.9-0.2c-0.7-0.2-1.4-0.6-2.3-1.2s-1.7-1.4-2.6-2.5c-0.9-1.1-2-2.4-3-4.1c-1.1-1.7-1.9-3.2-2.5-4.5c-0.6-1.3-1-2.5-1.2-3.4
		s-0.2-1.8-0.1-2.5s0.3-1.3,0.6-1.8c0.3-0.5,0.6-0.9,1.1-1.3c0.4-0.3,0.8-0.6,1.2-0.9l17.6-11.2l6.2,9.7L50.3,257.3z"/>
	<path class="st1" d="M85,270.1l-1.6-1.6L69.6,282l1.6,1.6l5.5-5.4l8.1,8.3l-3.8,3.8c-0.3,0.3-0.7,0.6-1.1,1
		c-0.4,0.3-0.9,0.6-1.5,0.7s-1.2,0.2-1.9,0.2c-0.7,0-1.5-0.3-2.4-0.7c-0.9-0.4-1.9-1-3.1-1.9c-1.1-0.8-2.4-2-3.8-3.4
		c-1.4-1.4-2.5-2.7-3.4-3.9c-0.8-1.2-1.5-2.2-1.9-3.1c-0.4-0.9-0.6-1.8-0.7-2.5c0-0.7,0-1.4,0.2-1.9c0.2-0.6,0.4-1,0.8-1.5
		c0.3-0.4,0.6-0.8,1-1.1l10.4-10.2c0.3-0.3,0.7-0.6,1.1-0.9c0.4-0.3,0.9-0.5,1.5-0.7c0.6-0.2,1.2-0.2,1.9-0.2
		c0.7,0.1,1.5,0.3,2.5,0.7c0.9,0.4,1.9,1.1,3.1,1.9c1.1,0.9,2.4,2,3.8,3.4c1.4,1.4,2.5,2.7,3.4,3.9s1.4,2.2,1.8,3.1
		c0.4,0.9,0.6,1.7,0.6,2.4c0,0.7,0,1.3-0.2,1.9c-0.2,0.5-0.4,1-0.8,1.4c-0.3,0.4-0.7,0.8-1,1.1l-3.9,3.8l-8.1-8.3L85,270.1z"/>
	<path class="st1" d="M118,290.4l-15.1,22.7l-9.6-6.4l6.5-9.8l-1.9-1.2l-6.5,9.8l-9.6-6.4l15.1-22.7l9.6,6.4l-6.2,9.3l1.9,1.2
		l6.2-9.3L118,290.4z"/>
	<path class="st1" d="M137.6,315.1l-2.1-0.6l-3.2,10.6l-11.1-3.3l7.9-26.1l13.1,4c1.9,0.6,3.4,1.1,4.6,1.7c1.2,0.6,2.2,1.2,2.9,1.8
		c0.7,0.6,1.2,1.2,1.5,1.8c0.3,0.6,0.5,1.3,0.5,1.9c0,0.7,0,1.3-0.2,2c-0.2,0.7-0.4,1.4-0.6,2c-0.3,0.8-0.5,1.5-0.8,2
		c-0.3,0.5-0.6,0.9-0.9,1.2c-0.3,0.3-0.6,0.5-0.9,0.7s-0.6,0.2-0.9,0.3c-0.3,0.1-0.7,0.1-1.1,0.1c-0.4,0-0.8,0-1.1-0.1
		c0.4,0.2,0.8,0.4,1.2,0.7c0.4,0.3,0.8,0.7,1.1,1.2c0.3,0.5,0.5,1.1,0.6,1.7c0.1,0.7,0,1.4-0.3,2.3l-2.4,8l-11.1-3.3L137.6,315.1z
		 M136.6,310.6l2.1,0.6l2.4-7.9l-2.1-0.6L136.6,310.6z"/>
	<path class="st1" d="M163.8,327.2l2.2,0.2l1.9-23.2l11.5,1l-1.7,20.8c0,0.5-0.1,0.9-0.2,1.5s-0.3,1-0.6,1.5c-0.3,0.5-0.8,1-1.3,1.4
		c-0.6,0.4-1.3,0.8-2.3,1.1c-1,0.3-2.2,0.5-3.6,0.6c-1.4,0.1-3.1,0.1-5.1-0.1c-2-0.2-3.7-0.4-5.1-0.8c-1.4-0.3-2.5-0.7-3.4-1.2
		s-1.6-0.9-2.1-1.4c-0.5-0.5-0.9-1.1-1.1-1.6c-0.2-0.5-0.3-1.1-0.4-1.6s0-1,0-1.5l1.7-20.8l11.5,1L163.8,327.2z"/>
	<path class="st1" d="M207.6,315.1l1.7,14l-8.9,1.1l-1.2-1.6c-0.2,0.5-0.5,0.9-0.9,1.4c-0.4,0.4-0.9,0.7-1.5,1
		c-0.6,0.3-1.5,0.6-2.5,0.7c-1.3,0.2-2.5,0.2-3.5,0.1c-1-0.1-2-0.3-2.7-0.5c-0.8-0.3-1.5-0.6-2-1c-0.6-0.4-1-0.8-1.4-1.3
		c-0.4-0.5-0.7-0.9-0.9-1.4s-0.3-1-0.4-1.4l-1.8-14.7c-0.1-0.5-0.1-1-0.1-1.5c0-0.5,0.1-1.1,0.3-1.6c0.2-0.5,0.6-1.1,1.1-1.6
		c0.5-0.5,1.2-1,2.1-1.5c0.9-0.5,2-0.9,3.4-1.3s3-0.7,5-0.9c1.9-0.2,3.5-0.3,4.9-0.3c1.4,0,2.6,0.2,3.5,0.4s1.8,0.6,2.4,1
		c0.6,0.4,1.1,0.8,1.4,1.3s0.6,1,0.8,1.5c0.2,0.5,0.3,1,0.3,1.4l0.7,5.4l-11.5,1.4l-1-7.7l-2.2,0.3l2.4,19.2l2.2-0.3l-0.8-6.1
		l-1.1,0.1l-0.5-3.9L207.6,315.1z"/>
	<path class="st1" d="M237.8,311.7c0.2,0.7,0.4,1.3,0.6,2c0.2,0.6,0.3,1.3,0.3,1.9c0,0.6-0.2,1.2-0.4,1.8c-0.3,0.6-0.7,1.2-1.4,1.8
		s-1.6,1.2-2.7,1.8c-1.2,0.6-2.6,1.2-4.4,1.8l-13.3,4.6l-8.9-25.8l13.4-4.6c1.6-0.6,3.1-0.9,4.2-1.2c1.2-0.2,2.2-0.3,3-0.2
		c0.8,0.1,1.5,0.3,2.1,0.6s1,0.7,1.3,1.1s0.6,0.9,0.8,1.4s0.4,1,0.6,1.5c0.2,0.7,0.4,1.3,0.4,1.9s0,1-0.2,1.5
		c-0.1,0.4-0.3,0.8-0.5,1.2c-0.2,0.3-0.5,0.6-0.8,0.9c-0.6,0.6-1.4,1.1-2.4,1.5c1.1-0.3,2.2-0.4,3.2-0.3c0.4,0,0.9,0.1,1.3,0.3
		s0.9,0.4,1.3,0.7s0.9,0.8,1.3,1.5S237.5,310.7,237.8,311.7z M221.9,307.8l2.1-0.7l-2.1-6.2l-2.1,0.7L221.9,307.8z M226,319.9
		l2.1-0.7l-2.9-8.4l-2.1,0.7L226,319.9z"/>
	<path class="st1" d="M239,288.8l8.2,7.2l-2.3-10.7l8.9-5.2l3.1,20.9l3.9,6.6l-10,5.9l-4-6.8l-16.7-12.7L239,288.8z"/>
	<path class="st1" d="M273.8,266.4l-1.5,1.6l14.1,13.2l1.5-1.6l-5.6-5.3l7.9-8.4l3.9,3.7c0.3,0.3,0.7,0.7,1,1.1
		c0.3,0.4,0.6,0.9,0.8,1.4c0.2,0.5,0.3,1.2,0.3,1.9c0,0.7-0.2,1.5-0.6,2.5c-0.4,0.9-1,2-1.7,3.1c-0.8,1.2-1.9,2.5-3.3,3.9
		c-1.4,1.5-2.6,2.6-3.8,3.5c-1.1,0.9-2.2,1.5-3.1,2c-0.9,0.4-1.7,0.7-2.5,0.8c-0.7,0.1-1.4,0-1.9-0.1c-0.6-0.2-1.1-0.4-1.5-0.7
		c-0.4-0.3-0.8-0.6-1.1-0.9l-10.7-10c-0.3-0.3-0.7-0.7-1-1.1c-0.3-0.4-0.6-0.9-0.8-1.4c-0.2-0.6-0.3-1.2-0.2-1.9
		c0-0.7,0.2-1.6,0.6-2.5s1-2,1.8-3.2c0.8-1.2,1.9-2.5,3.3-4c1.4-1.5,2.6-2.6,3.7-3.5c1.1-0.9,2.1-1.5,3-2s1.7-0.7,2.4-0.7
		c0.7-0.1,1.3,0,1.9,0.1c0.6,0.2,1,0.4,1.5,0.7c0.4,0.3,0.8,0.6,1.1,0.9l4,3.7l-7.9,8.4L273.8,266.4z"/>
	<path class="st1" d="M302.4,268.6l-22.8-14.9l6.3-9.7l19.3,12.6l3.4-5.2l3.5,2.3L302.4,268.6z"/>
	<path class="st1" d="M315.6,237.1l0.9-2.1l-21.4-9.1l4.5-10.6l19.3,8.1c0.4,0.2,0.9,0.4,1.3,0.7c0.5,0.3,0.9,0.6,1.2,1.1
		c0.4,0.5,0.7,1,0.9,1.7s0.3,1.5,0.3,2.5c0,1-0.2,2.2-0.6,3.6s-0.9,3-1.7,4.8c-0.8,1.9-1.6,3.4-2.3,4.6s-1.5,2.2-2.2,2.9
		c-0.7,0.7-1.4,1.2-2,1.5c-0.6,0.3-1.3,0.5-1.8,0.5c-0.6,0-1.1,0-1.6-0.2c-0.5-0.1-1-0.3-1.4-0.5l-19.3-8.1l4.5-10.6L315.6,237.1z"
		/>
	<path class="st1" d="M323.8,192.6c0.7,0.1,1.4,0.3,2,0.4c0.7,0.2,1.2,0.4,1.8,0.7c0.5,0.3,1,0.7,1.4,1.3s0.7,1.2,0.8,2.1
		c0.2,0.9,0.2,2,0.2,3.3c-0.1,1.3-0.3,2.9-0.6,4.7l-2.7,13.9l-26.8-5.2l2.7-13.9c0.3-1.7,0.7-3.1,1.1-4.2s0.9-2,1.3-2.7
		c0.5-0.7,1-1.2,1.5-1.5c0.5-0.3,1.1-0.5,1.6-0.6s1.1-0.1,1.6,0c0.5,0.1,1.1,0.2,1.6,0.3c0.7,0.1,1.3,0.3,1.8,0.6
		c0.5,0.3,0.9,0.5,1.2,0.9s0.6,0.7,0.7,1c0.2,0.4,0.3,0.7,0.4,1.1c0.2,0.9,0.3,1.8,0.1,2.8c0.3-1.1,0.7-2.1,1.3-2.9
		c0.3-0.4,0.6-0.7,0.9-1c0.3-0.3,0.8-0.6,1.3-0.8c0.5-0.2,1.2-0.3,1.9-0.4C321.9,192.3,322.8,192.4,323.8,192.6z M312.4,204.4
		l0.4-2.2l-6.4-1.2l-0.4,2.2L312.4,204.4z M325,206.9l0.4-2.2l-8.7-1.7l-0.4,2.2L325,206.9z"/>
</g>
<g>
	<path class="st1" d="M49,108.5c0.2,0.1,0.4,0,0.6-0.3c0.3-0.3,0.6-0.7,0.9-1.3c0.4-0.5,0.8-1.2,1.3-1.8c0.5-0.7,1-1.4,1.6-2
		c0.6-0.7,1.2-1.3,2-1.8c0.7-0.6,1.5-1,2.3-1.2c0.8-0.3,1.7-0.4,2.7-0.3s2,0.4,3.1,1c0.8,0.4,1.6,0.9,2.3,1.3c0.7,0.5,1.4,1,2,1.6
		c0.6,0.6,1,1.3,1.4,2c0.3,0.8,0.5,1.7,0.5,2.7c0,1-0.2,2.2-0.6,3.5c-0.4,1.3-1.1,2.9-2,4.6c-0.9,1.7-1.8,3.2-2.7,4.3
		c-0.9,1.1-1.7,2-2.5,2.7c-0.8,0.7-1.5,1.2-2.2,1.4c-0.7,0.3-1.4,0.4-2,0.5c-0.6,0-1.2,0-1.7-0.2c-0.5-0.2-1-0.4-1.4-0.6l-2.4-1.3
		l5.5-10.1l4.5,2.5l1.1-2l-4.8-2.6c-0.2-0.1-0.4,0-0.7,0.3c-0.3,0.3-0.7,0.7-1.1,1.2l-1.5,1.7c-0.5,0.6-1.1,1.3-1.8,1.9
		c-0.6,0.6-1.3,1.2-2,1.8c-0.7,0.5-1.5,1-2.3,1.3c-0.8,0.3-1.6,0.5-2.4,0.5c-0.8,0-1.7-0.2-2.6-0.7c-1.1-0.6-2-1.2-2.8-1.8
		c-0.8-0.6-1.4-1.2-1.8-1.9c-0.4-0.7-0.7-1.4-0.9-2.2c-0.1-0.8-0.1-1.7,0.1-2.7s0.5-2.1,1.1-3.3c0.5-1.2,1.2-2.6,2-4.2
		c0.9-1.6,1.7-2.9,2.5-4c0.8-1,1.5-1.8,2.2-2.4c0.7-0.6,1.4-1,2-1.2c0.6-0.2,1.2-0.3,1.7-0.3c0.5,0,1.1,0.1,1.5,0.3
		c0.5,0.2,0.9,0.4,1.3,0.6l1.8,1l-5.1,9.4l-3.5-1.9l-1.1,2L49,108.5z"/>
	<path class="st1" d="M81.4,95.5c-1.3,1.5-2.5,2.8-3.6,3.7c-1.1,0.9-2.1,1.6-3,2.1c-0.9,0.5-1.7,0.8-2.4,0.9
		c-0.7,0.1-1.4,0.1-1.9-0.1c-0.6-0.1-1.1-0.3-1.5-0.6c-0.4-0.3-0.8-0.6-1.2-0.9l-11.1-9.5c-0.3-0.3-0.7-0.6-1-1
		c-0.4-0.4-0.6-0.8-0.9-1.4c-0.2-0.5-0.3-1.2-0.3-1.9c0-0.7,0.2-1.5,0.5-2.5c0.3-0.9,0.9-2,1.6-3.2c0.8-1.2,1.8-2.6,3.1-4.1
		c1.3-1.5,2.5-2.8,3.6-3.7c1.1-0.9,2.1-1.6,2.9-2.1c0.9-0.5,1.7-0.8,2.4-0.9c0.7-0.1,1.3-0.1,1.9,0s1.1,0.3,1.5,0.6
		c0.4,0.3,0.8,0.6,1.2,0.9l11.1,9.5c0.3,0.3,0.7,0.6,1.1,1s0.6,0.9,0.9,1.4c0.2,0.5,0.3,1.2,0.3,1.9s-0.1,1.6-0.5,2.5
		c-0.3,1-0.9,2-1.6,3.2C83.7,92.6,82.7,94,81.4,95.5z M77.2,93.3l1.5-1.7L63.9,79.1l-1.5,1.7L77.2,93.3z"/>
	<path class="st1" d="M97.2,74.1l1.8-1.4L84.8,54.2l9.2-7l12.7,16.6c0.3,0.4,0.5,0.8,0.8,1.2c0.3,0.5,0.4,1,0.5,1.6
		c0.1,0.6,0.1,1.2-0.1,1.9c-0.1,0.7-0.5,1.5-1,2.3c-0.5,0.9-1.3,1.8-2.3,2.8c-1,1-2.3,2.2-3.9,3.4c-1.6,1.2-3,2.2-4.3,2.9
		c-1.3,0.7-2.4,1.2-3.3,1.4c-1,0.3-1.8,0.4-2.5,0.3c-0.7-0.1-1.3-0.2-1.9-0.5c-0.5-0.2-1-0.6-1.3-0.9c-0.4-0.4-0.7-0.7-1-1.1
		L73.9,62.6l9.2-7L97.2,74.1z"/>
	<path class="st1" d="M120.4,33.7l2.2,4.5l-5.6,2.7l9.8,20L116.4,66l-9.8-20l-5.5,2.7l-2.2-4.5L120.4,33.7z"/>
	<path class="st1" d="M150.4,25.2l6.9,26.4l-11.2,2.9l-3-11.4l-2.2,0.6l3,11.4L132.8,58l-6.9-26.4l11.2-2.9l2.8,10.9l2.2-0.6
		l-2.8-10.9L150.4,25.2z"/>
	<path class="st1" d="M169.8,50.7l0.2-27.3l11.6,0.1l-0.2,23.1l6.2,0l0,4.2L169.8,50.7z"/>
	<path class="st1" d="M200.5,53.6c-2-0.4-3.6-0.8-5-1.3c-1.3-0.5-2.4-1-3.3-1.5c-0.9-0.5-1.5-1.1-1.9-1.7s-0.7-1.1-0.9-1.7
		c-0.2-0.6-0.2-1.1-0.2-1.6c0-0.5,0.1-1,0.2-1.5L192,30c0.1-0.4,0.2-0.9,0.4-1.4c0.2-0.5,0.4-1,0.8-1.4s0.8-0.9,1.5-1.2
		c0.6-0.4,1.4-0.6,2.4-0.8c1-0.2,2.2-0.2,3.6-0.2c1.4,0,3.1,0.3,5.1,0.6c2,0.4,3.6,0.8,5,1.3c1.3,0.5,2.4,1,3.3,1.5
		c0.9,0.5,1.5,1.1,2,1.6c0.4,0.6,0.8,1.1,0.9,1.7c0.2,0.6,0.2,1.1,0.2,1.6c0,0.5-0.1,1-0.2,1.5l-2.7,14.4c-0.1,0.4-0.2,0.9-0.4,1.4
		s-0.4,1-0.8,1.4c-0.4,0.5-0.8,0.9-1.5,1.2c-0.6,0.4-1.4,0.6-2.4,0.8c-1,0.2-2.2,0.3-3.6,0.2C204.1,54.2,202.4,54,200.5,53.6z
		 M200.2,48.8l2.2,0.4l3.6-19l-2.2-0.4L200.2,48.8z"/>
	<path class="st1" d="M229.4,62l-2.3-14.2L222.3,59l-7.4-3.2l10.8-25l9.3,4l2.4,15.2l5.1-11.9l7.4,3.2l-10.8,25L229.4,62z"/>
	<path class="st1" d="M265.3,76.7c-0.3,0.4-0.6,0.7-0.9,1.1c-0.3,0.4-0.7,0.7-1.2,1c-0.5,0.3-1,0.5-1.7,0.6c-0.6,0.1-1.4,0-2.3-0.2
		c-0.9-0.2-1.9-0.6-3.1-1.2c-1.2-0.6-2.5-1.5-4.1-2.6l-11.3-8.2l16-22.1l11.3,8.2c1.5,1.1,2.8,2.1,3.7,3.1c0.9,0.9,1.6,1.8,2.1,2.6
		c0.5,0.8,0.8,1.5,0.9,2.1c0.1,0.6,0.1,1.2,0,1.7c-0.1,0.5-0.3,1-0.6,1.4c-0.3,0.4-0.5,0.8-0.8,1.2L265.3,76.7z M252.5,70.9l1.8,1.3
		l11.4-15.6l-1.8-1.3L252.5,70.9z"/>
	<path class="st1" d="M270.6,93.2c-1.3-1.5-2.4-2.9-3.2-4c-0.8-1.2-1.3-2.3-1.7-3.2c-0.4-0.9-0.5-1.8-0.5-2.5c0-0.7,0.1-1.3,0.3-1.9
		c0.2-0.5,0.5-1,0.8-1.4c0.3-0.4,0.7-0.7,1-1.1l10.9-9.8c0.3-0.3,0.7-0.6,1.2-0.9s0.9-0.5,1.5-0.7c0.6-0.1,1.2-0.2,1.9-0.1
		c0.7,0.1,1.5,0.4,2.4,0.8c0.9,0.5,1.9,1.1,3,2c1.1,0.9,2.3,2.1,3.7,3.6c1.3,1.5,2.4,2.8,3.2,4c0.8,1.2,1.3,2.3,1.7,3.2
		c0.4,0.9,0.5,1.8,0.6,2.5c0,0.7-0.1,1.3-0.3,1.9c-0.2,0.5-0.5,1-0.8,1.4c-0.3,0.4-0.7,0.7-1,1.1L284.2,98c-0.3,0.3-0.7,0.6-1.2,0.9
		c-0.4,0.3-0.9,0.5-1.5,0.7c-0.6,0.1-1.2,0.2-1.9,0.1c-0.7-0.1-1.5-0.4-2.4-0.8c-0.9-0.5-1.9-1.1-3-2
		C273.1,95.9,271.9,94.7,270.6,93.2z M273.3,89.3l1.5,1.7L289.2,78l-1.5-1.7L273.3,89.3z"/>
	<path class="st1" d="M288.4,117.4l6.8-12.7l-10.6,6l-4-7l23.8-13.3l5,8.8l-7.3,13.5l11.3-6.4l4,7l-23.8,13.3L288.4,117.4z"/>
</g>
<polygon class="st2" points="39.1,138.1 43,150 55.6,150 45.4,156.4 49.3,167.8 39.1,160.2 29,167.4 32.8,156.4 22.7,150 35.2,150 
	"/>
<polygon class="st2" points="317.1,138.1 321,150 333.6,150 323.4,156.4 327.3,167.8 317.1,160.2 307,167.4 310.8,156.4 300.7,150 
	313.2,150 "/>
<g>
	<path class="st3" d="M245.5,133.3l16.7-19.7l-18.5,1.3l-6-3.8l-18.5-8.3l0-9.7l-18.6,5.6l-7.9-1.6l-66,24l-19,21l-31,21l-2,9l6,14
		l9.1,8l8.5,14.9l-0.1-5.6l9.1,8l-5.6-23.2c0,0,24.3-7.6,36.8,3.9c0.2,2.6,0.8,10.6,0.1,15.2c-1.4,9.5-5.4,8.9-7.4,16.5
		c-1.3,4.9-1.8,7.9-2,9.5c-0.1,0.1-0.3,0.2-0.4,0.3l-16-8.4l2.4,4.6l2,3.8l1.5,2.9l6.1,11.6l5,12c21.5-12.6,62.3-28.5,84-5.9
		c-1.3-7.8-2-27-2-27l23.8,19.2c0,0-8-45.3-6.8-44.2s30,11,30,11l-18.1-48.6l18.1-9.2L245.5,133.3z"/>
	<path class="st4" d="M140.6,193.1c0,0,1.8,17.7-3.3,23.1c-5,5.3-6.4,18.2-6.4,18.2l14.6-10.3l4.6-18.8L140.6,193.1z"/>
	<g>
		<polygon class="st2" points="237.7,111.1 192.7,102 130.7,124 110.7,146 87.8,160 78.1,168.8 80.1,178.5 86.8,188.5 89.6,168.1 
			100.7,165 129.1,165.3 173.7,196 173.5,176.3 185.7,179.2 186,162.4 196,169.5 205.5,120.4 246.6,116.7 		"/>
		<path class="st2" d="M166.6,226.8l-2.2-10.8c0,0-13.8,24.1-37.5,31.7l4.2,9.8l35.3-15.7l27.5-1L175.9,215L166.6,226.8z"/>
	</g>
	<g>
		<polygon class="st5" points="160.3,132.5 154.7,132.2 125.7,146.5 137.7,146.5 156.7,155.3 153.5,145.9 154.3,136.9 		"/>
		<polygon class="st5" points="205.8,189.9 194,180.5 192,211 175.2,208.7 198.6,225.2 199.6,189.9 214,204.9 211.2,172.8 
			221.8,182.5 208.2,148.1 		"/>
		<polygon class="st5" points="225.8,138.7 240,124 213.3,127.8 224.5,131.2 		"/>
		<polygon class="st5" points="107.2,165.1 129,166.3 153.5,182.1 132.6,161.8 		"/>
		<path class="st5" d="M245.5,133.3l16.7-19.7l-61.5,4.3l0.3,25.9l4.2-21.8l47.5-3.9l-24,28l22,59L223,194.9l5.7,39.5L207,217.3
			l-0.2,26.2c-0.4-0.7-25.8-18.1-73.3,8.5c-4.2-7.3-7-12.8-7-12.8c0.8,1,11.6-2.2,19.1-10.8c0.4-0.4,4.8-5,7.5-8.3
			c6.6-8,6.9-20.6,6.9-20.6s-2.8,9.3-7,14.9c-0.2,0.3-0.4,0.6-0.6,0.8c1.1-4.9,1-10.6-1-17.1c-1.2-3.9-3.1-7-5.5-9.3
			c4.5,1.7,9.2,4,9.2,4s-7.1-6.9-15.1-8.8c-1.3-0.3-2.8-0.6-4.2-0.9c-17.7-5.2-43.1,4-43.1,4l-4.7,1.2l2.4-16.2l10-7l-14.3,2.2
			l-1.1,6.8l-4.5,1.8c0,0-2.7-5-0.1-7.8c2.6-2.8,7-8,7-8l23-14l20-22l21.2-7.5l18.9,4.3l2.1,19.9l4-22.7l-12-6.1l5.3-1.9l13.1,5.4
			l0.7,13.4l3.7-17.8l-7.9-4.4l13-4.6l45,9l-18.5-8.3l0-9.7l-18.6,5.6l-7.9-1.6l-66,24l-19,21l-31,21l-2,9l6,14l9.1,8l8.5,14.9
			l-0.1-5.6l9.1,8l-5.6-23.2c0,0,24.3-7.6,36.8,3.9c0.2,2.6,0.8,10.6,0.1,15.2c-1.4,9.5-5.4,8.9-7.4,16.5c-1.3,4.9-1.8,7.9-2,9.5
			c-0.1,0.1-0.3,0.2-0.4,0.3l-16-8.4l2.4,4.6l2,3.8l1.5,2.9l6.1,11.6l5,12c21.5-12.6,62.3-28.5,84-5.9c-1.6-6.9-2-27-2-27l23.8,19.2
			c0,0-8-45.3-6.8-44.2s30,11,30,11l-18.1-48.6l18.1-9.2L245.5,133.3z M102.9,203.6l-9.5-11.5l5-2.2L102.9,203.6z M135.4,223.1
			c1.3-3.5,5.2-6.8,6.2-10.7c0.9-3.5,1.4-9.7,1.3-14.2c0.7,1.5,1.3,3.1,1.7,4.9c3.4,17.8-5,24.4-11.2,27.8
			C133.7,229.2,134.2,226.3,135.4,223.1z M122.2,236.3l-3.8-5.7l6.5,4.3L122.2,236.3z"/>
		<polygon class="st5" points="160.5,159.2 167.7,174.1 173.7,196 173.5,176.3 185.7,179.2 		"/>
	</g>
	<polygon class="st6" points="143,144.9 148.9,146.5 147.7,139.3 142.6,141.5 	"/>
</g>
</svg>
