<?xml version="1.0" encoding="utf-8"?>
<!-- Generator: Adobe Illustrator 16.0.0, SVG Export Plug-In . SVG Version: 6.00 Build 0)  -->
<!DOCTYPE svg PUBLIC "-//W3C//DTD SVG 1.1//EN" "http://www.w3.org/Graphics/SVG/1.1/DTD/svg11.dtd">
<svg version="1.1" id="Layer_1" xmlns="http://www.w3.org/2000/svg" xmlns:xlink="http://www.w3.org/1999/xlink" x="0px" y="0px"
	 width="282.4px" height="396.21px" viewBox="0 0 282.4 396.21" enable-background="new 0 0 282.4 396.21" xml:space="preserve">
<g>
	<path fill-rule="evenodd" clip-rule="evenodd" fill="#FFFFFF" d="M65.2,212.61l-13.92-27.54l25.55,11.94
		c-0.22-1.63-0.29-3.55-0.05-5.82c0.75-7.15,4.92-10.63,9.33-14.31c4.4-3.67,9.83-8.2,14.39-18.51
		c-4.12-10.75-13.78-16.19-28.74-16.19c-9.35,0-18.38,2.18-23.11,3.54l8.07,39.86l-21.27-21.64l-5.37-5.6l-6.48-7.54l-13.15-11.55
		l-0.3-0.46c-7.32-11.24-9.33-20.15-9.7-22.07c-0.58-1.88-1.56-7.55,4.15-15.29c4.08-5.52,18.03-14.22,34.48-24.19
		c4.64-2.81,8.64-5.23,10.7-6.65c2.81-1.93,6.06-5.98,9.49-10.25c6.46-8.05,14.49-18.06,26.02-22.49
		c20.09-7.72,66.32-25.19,66.79-25.37c3.42-1.3,15.37-5.55,25.45-5.55c2.78,0,5.23,0.33,7.31,0.98L221.91,0l-7.71,17.31l38.46,13.01
		l28.76-1.38l-27.28,32.19l22.96,21.24l-28.5,8.54l33.8,50.82l-42.3,13.15l13.53,19.65l-22.58,1.87l7.96,44.83l-34.12-18.22
		c0.18,8.68,1,24.01,1.93,30.09c0.56,3.71,1.53,11.16,1.53,11.16l-8.1-7.79c-9.58-9.94-22.83-14.98-39.38-14.98
		c-8.05,0-37.31,1.74-75.52,24.14l-3.8,2.23L65.2,212.61z"/>
	<path fill-rule="evenodd" clip-rule="evenodd" fill="#FFFFFF" d="M252.1,34.35l-43.34-14.66l6.3-14.14l-30.48,6.49
		c-7.52-3.04-21.87,0.67-31.08,4.17c0,0-46.46,17.56-66.77,25.36c-16.71,6.42-25.77,26.19-34.68,32.31
		c-7.7,5.29-38.76,22.51-44.23,29.92c-5.47,7.41-3.48,11.92-3.48,11.92s1.44,9.02,9.17,20.89c3.76,3.31,12.95,11.38,12.95,11.38
		l6.59,7.67l5.34,5.56l13.45,14.91l-7.94-33.1c0,0,49.97-18.02,60.9,15.49c-9.39,22.7-22.77,21.1-24.04,33.1
		c-0.76,7.16,2.1,10.01,1.8,12.25c-0.2,0.12-0.4,0.24-0.57,0.36l-22.87-11.97l9.68,18.59l14.53,31.34
		c30.69-17.99,88.81-40.65,119.8-8.48c-2.23-9.85-2.32-37.41-2.32-37.41l32.84,17.53l-7.29-41.05l20.07-1.66l-12.7-18.44
		l42.38-13.17l-33.83-50.87l26.97-8.08l-20.63-19.08l23.8-28.09L252.1,34.35L252.1,34.35"/>
	<path fill-rule="evenodd" clip-rule="evenodd" fill="#ED1C24" d="M88.25,188.85c2.47-4.96,4.85-5.11,7.31-7.4
		c4.09-3.81,8.05-8.32,11.13-13.9c4.29,14.02-9.08,28.16-17.84,33C88.2,197.86,85.55,194.26,88.25,188.85z"/>
	<path fill-rule="evenodd" clip-rule="evenodd" fill="#FF931E" d="M82.06,225.55c0,0,37.08-14.74,50.15-42.55l4.04,12.6l12.83-15.45
		l21.87,34.47c-27.33,0.95-67.98,7.37-83.91,21.87L82.06,225.55z"/>
	<path fill-rule="evenodd" clip-rule="evenodd" fill="#FF931E" d="M252.1,34.35l-43.34-14.66l6.3-14.14l-30.48,6.49
		c-7.52-3.04-21.87,0.67-31.08,4.17c0,0-46.46,17.56-66.77,25.36c-16.71,6.42-25.77,26.19-34.68,32.31
		c-7.7,5.29-38.76,22.51-44.23,29.92c-5.47,7.41-3.48,11.92-3.48,11.92l8.43,16.65l10.34-5.94c0,0-0.6-6.78,2.14-11.41
		c3.8-6.42,19.8-11.4,38.03-10.46c18.3,0.95,27.34,0.95,36.37,9.27l43.02,33.28l0.24-24.24l17.12,1.01l0.95-25.97l14.74,8.8
		l11.41-58.95l7.13-6.89l51.82-3.57L252.1,34.35z"/>
	<polygon fill-rule="evenodd" clip-rule="evenodd" points="236.99,50.48 220.23,70.62 218.67,58.59 200.67,53.17 	"/>
	<polygon fill-rule="evenodd" clip-rule="evenodd" points="197.05,84.8 192.03,141.13 175.53,127.47 172.29,172.34 153.01,162.56
		181.68,192.64 181.43,140.79 203.66,163.6 201.51,109.08 224.67,120.49 	"/>
	<path fill-rule="evenodd" clip-rule="evenodd" d="M196.68,36.98c-8.99,0.65-12.19,6.89-13.13,12.14
		c-0.94,5.25-9.35,52.16-9.35,52.16l-16.72-12.65l-0.42,31.5l-11.9-4.05l-17.82-15.57l11.35,22.47v16.67c0,0-34.03-28.5-44.16-33.74
		c-15.88-8.21-47.6-5.14-54.04-3.14c-6.88,2.14-18.99,5.65-20.42,16.68c-1.55,8.65-6.45,2.63-6.45,2.63s-2.68-5.79-1.43-11.17
		c1.25-5.38,11.85-10.96,11.85-10.96s20.44-11.41,32.62-19.79c14.73-10.13,16.02-25.47,36.76-33.68
		c14.12-5.58,21.74-8.98,21.74-8.98l25.16,7.01l5.92,26.11l4.54-30.91l-17.18-8.73l7.6-2.69l18.64,8.47l-1.12,22.22l12.03-28.52
		l-15.92-7c0,0,1.6-0.52,3.11-1.1c8.65-3.36,18.03-5.48,24.4-3.49c6.37,1.99,52.25,16.33,52.25,16.33 M252.1,34.35l-43.34-14.66
		l6.3-14.14l-30.48,6.49c-7.52-3.04-21.87,0.67-31.08,4.17c0,0-46.46,17.56-66.77,25.36c-16.71,6.42-25.77,26.19-34.68,32.31
		c-7.7,5.29-38.76,22.51-44.23,29.92c-5.47,7.41-3.48,11.92-3.48,11.92s1.44,9.02,9.17,20.89c3.76,3.31,12.95,11.38,12.95,11.38
		l6.59,7.67l5.34,5.56l12.46,12.91l-6.95-31.1c0,0,49.97-18.02,60.9,15.49c-9.39,22.7-22.77,21.1-24.04,33.1
		c-0.76,7.16,2.1,10.01,1.8,12.25c-0.2,0.12-0.4,0.24-0.57,0.36l-22.36-10.98l9.17,17.61l14.53,31.34
		c30.69-17.99,88.81-40.65,119.8-8.48c-2.23-9.85-2.32-37.41-2.32-37.41l32.84,17.53l-7.29-41.05l20.07-1.66l-12.7-18.44
		l42.38-13.17l-33.83-50.87l26.97-8.08l-20.63-19.08l23.8-28.09 M31.14,145.24l6.47-2.5l5.83,17.43L31.14,145.24z M88.25,188.85
		c2.47-4.96,4.85-5.11,7.31-7.4c4.09-3.81,8.05-8.32,11.13-13.9c4.29,14.02-9.08,28.16-17.84,33
		C88.2,197.86,85.55,194.26,88.25,188.85z M72.09,208.42l-4.34-7.26l8.78,5.2L72.09,208.42z M90.83,229.3
		c-1.72,0.69-3.19,1.28-4.3,1.72l-1.8-3.39c24.34-8.97,40.34-28.59,47.14-38.65l2.72,13.55l14.62-17.98l17.44,25.52
		C149.64,208.58,124.67,211.64,90.83,229.3z M262.24,134.78l-48.07,15.71l10.04,48.69l-31.43-18.38l0.74,36.72
		c-2.82-1.26-9.29-4.66-19.73-6.52l-24.24-36.18l-11.96,15.15l-3.39-16.87l-3.57,6.5c-0.18,0.32-17.74,31.72-48.67,42.79l-4.3-8.26
		c11.61-4.15,21.86-9.14,39.49-28.98c9.85-11.08,9.85-29.38,9.85-29.38s-4.04,13.31-10,21.26c-0.31,0.41-0.6,0.8-0.88,1.18
		c1.53-6.97,1.4-15.08-1.39-24.42c-1.67-5.58-4.41-9.94-7.89-13.31c6.49,2.45,13.09,5.77,13.09,5.77s-10.13-9.79-21.48-12.53
		c-1.8-0.43-3.97-0.87-6-1.26c-25.31-7.43-59.24,3.7-59.24,3.7l-7.33,3.1c0,0-1.92-17.41,1.89-22.61c3.81-5.2,10.48-7.37,17.63-8.29
		c7.15-0.92,31.34-3.35,45.43,4.25c14.09,7.61,55.37,40.34,55.37,40.34l0.89-27.88l16.18,3.89l0.53-25.89l14.88,11.04
		c0,0,10.05-57.74,11.26-62.15c0.88-3.2,1.92-6.62,7.34-7.02c3.93-0.29,59.65-4.28,59.65-4.28L224.61,79.7L262.24,134.78z"/>
	<path fill-rule="evenodd" clip-rule="evenodd" d="M76.87,80.91l44.63,9.45c0,0-11.43-19.91-6.59-24.48
		c4.84-4.56,14.61-9.26,14.61-9.26h-11.08L76.87,80.91z M99.69,78.06l-2.6-2.71l10.52-6.08c0,0-0.56,2.72-0.07,4.98
		c0.49,2.27,2.5,6.54,2.5,6.54L99.69,78.06z"/>
	<path fill-rule="evenodd" clip-rule="evenodd" fill="#FFFFFF" d="M99.69,78.06l-2.6-2.71l10.52-6.08c0,0-0.56,2.72-0.07,4.98
		c0.49,2.27,2.5,6.54,2.5,6.54L99.69,78.06z"/>
</g>
<g>
	<path fill="#FFFFFF" d="M14.54,349.94l6.35-1.82l0.02-8.51L7.2,341.62v-66.34c0-8.36,6.8-15.16,15.16-15.16h237.69
		c8.36,0,15.15,6.8,15.15,15.16v58.42l-3.45-0.35l0.02,18.55l3.43,1.26v42.82l-17.39-8.11c-6.71-3.13-13.82-6.03-21.12-8.61
		l-1.36-0.48l-1.25-0.42c-6.95-2.37-14.18-4.48-21.51-6.28l-9.19-2.26l-0.02-1.46c-0.22,0.03-0.45,0.07-0.68,0.1
		c-1.88,0.25-3.87,0.37-6.1,0.37l-0.58,0c-2.4-0.02-5.01-0.26-7.98-0.72c-4.49-0.7-8.69-1.93-12.47-3.65
		c-4.29-1.95-8.03-4.66-11.11-8.06c-0.26-0.29-0.52-0.58-0.77-0.88c-0.77,0.84-1.59,1.62-2.48,2.36c-2.91,2.42-6.54,4.18-10.79,5.23
		c-2.89,0.72-6.19,1.04-10.68,1.04h-0.3c-3.24,0-7.03-0.11-10.49-0.92c-4.47-1.05-8.05-2.7-10.93-5.04
		c-0.96-0.78-1.86-1.63-2.69-2.55c-0.29,0.36-0.58,0.71-0.88,1.05c-3.03,3.43-6.74,6.2-11.03,8.22c-3.77,1.77-7.95,3.06-12.4,3.81
		c-2.63,0.45-5.18,0.67-7.56,0.67c-1.95,0-3.85-0.15-5.64-0.45c-4.82-0.79-9.03-2.75-12.54-5.83l-0.09,9.87l-2.54,0.97
		c-0.1,0.04-10.03,3.84-19.51,8.19c-7.8,3.58-22.63,11.09-22.78,11.16l-5.81,2.94V349.94z"/>
	<path d="M271.2,329.28l-3.45-0.35l0.03,25.77l3.43,1.26v33.75l-11.7-5.46c-6.88-3.21-14.11-6.16-21.47-8.76l-1.36-0.48l-1.3-0.44
		c-7.06-2.41-14.41-4.55-21.84-6.38l-6.18-1.52l-0.04-3.36c-1.56,0.53-3.24,0.92-5.16,1.18c-1.68,0.22-3.5,0.34-5.56,0.34l-0.55,0
		c-2.2-0.02-4.62-0.24-7.39-0.67c-4.15-0.65-8-1.78-11.43-3.34c-3.8-1.73-7.1-4.13-9.8-7.11c-1.39-1.54-2.62-3.28-3.69-5.16
		c-1.3,2.46-3,4.52-5.07,6.24c-2.56,2.12-5.66,3.55-9.2,4.43c-2.91,0.72-6.18,0.92-9.71,0.92h-0.3c-3.48,0-6.7-0.14-9.57-0.82
		c-3.59-0.84-6.73-2.14-9.33-4.25c-2.17-1.77-3.94-3.96-5.3-6.54c-1.09,2.01-2.35,3.85-3.79,5.48c-2.67,3.02-5.95,5.46-9.74,7.25
		c-3.44,1.62-7.26,2.79-11.36,3.48c-2.41,0.41-4.73,0.62-6.9,0.62c-1.73,0-3.41-0.13-4.99-0.39c-4.44-0.73-8.26-2.62-11.34-5.63
		c-2.43-2.36-4.34-5.45-5.72-9.19l-0.19,20.04c0,0-10.03,3.84-19.75,8.29c-7.96,3.65-22.92,11.23-22.92,11.23v-36.75l6.34-1.82
		L24.93,335c-1.37,0.2-2.81,0.39-4.17,0.6l-9.56,1.4v-39.87c0,0,0-0.08,0-0.21c0-1.14,0-21.64,0-21.64
		c0-6.16,4.99-11.16,11.16-11.16h118.96h118.73c6.16,0,11.15,5,11.15,11.16V329.28z"/>
	<g>
		<path fill="#FFFFFF" d="M19.68,305.1c14.52-0.12,29.04-0.21,43.56-0.27c-0.06,5.89-0.13,11.78-0.19,17.67
			c-3.32,0.28-6.64,0.59-9.95,0.91c0.02-2.01,0.04-4.02,0.06-6.02c-1.23,0.08-2.47,0.17-3.7,0.26c-0.1,11.66-0.21,23.31-0.31,34.97
			c1.34-0.34,2.68-0.67,4.03-1c-0.04,4.16-0.08,8.33-0.12,12.49c-7.73,2.45-20.29,7.76-26.28,10.65l0.01-15.59
			c1.33-0.44,4.97-1.6,6.31-2.02c0.06-12.75,0.12-25.49,0.18-38.23c-1.23,0.11-2.46,0.22-3.69,0.33c-0.01,2.29-0.02,4.57-0.03,6.86
			c-3.3,0.44-6.59,0.9-9.88,1.39C19.68,320.04,19.68,312.57,19.68,305.1z"/>
		<path fill="#FFFFFF" d="M111.5,328.78c-0.03,4.54-0.59,8.42-1.66,11.67c-1.08,3.24-2.59,5.96-4.53,8.16s-4.31,3.95-7.08,5.25
			c-2.77,1.3-5.86,2.25-9.24,2.82c-3.38,0.57-6.44,0.67-9.19,0.22c-2.74-0.45-5.06-1.57-6.94-3.41s-3.33-4.47-4.34-7.9
			c-1-3.43-1.47-7.79-1.42-13.03c0.06-5.19,0.63-9.67,1.71-13.38c1.08-3.71,2.59-6.7,4.53-8.98c1.94-2.28,4.28-3.9,7.04-4.91
			c2.75-1.01,5.81-1.49,9.17-1.49c3.36,0,6.41,0.48,9.14,1.4c2.73,0.93,5.05,2.39,6.94,4.37c1.9,1.98,3.36,4.55,4.38,7.71
			C111.04,320.46,111.53,324.28,111.5,328.78z M89.11,345c1.32-0.17,2.31-0.68,2.98-1.51c0.67-0.84,1.01-2.1,1.03-3.78
			c0.07-6.52,0.14-13.05,0.2-19.57c0.02-1.69-0.3-2.89-0.95-3.62c-0.65-0.73-1.63-1.08-2.95-1.03c-1.32,0.05-2.31,0.47-2.97,1.28
			s-1.01,2.07-1.03,3.8c-0.07,6.69-0.15,13.38-0.22,20.07c-0.02,1.73,0.3,2.94,0.95,3.62C86.8,344.92,87.79,345.17,89.11,345z"/>
		<path fill="#FFFFFF" d="M158.46,334.99c0.01,3.29-0.41,6.04-1.28,8.25c-0.87,2.21-2.12,3.99-3.76,5.34
			c-1.64,1.36-3.62,2.31-5.95,2.89c-2.33,0.58-4.92,0.87-7.78,0.88c-2.94,0.02-5.58-0.24-7.95-0.8c-2.36-0.55-4.38-1.49-6.03-2.83
			c-1.65-1.34-2.93-3.11-3.84-5.32c-0.9-2.21-1.35-4.97-1.33-8.27c0.04-6.82,0.07-13.64,0.11-20.45c-1.16,0.02-2.32,0.03-3.48,0.06
			c0.02-3.36,0.04-6.71,0.06-10.07c7.34-0.01,14.68-0.01,22.02-0.02c0,3.29,0,6.58,0,9.88c-0.78,0-1.55,0-2.32,0.01
			c-0.01,7.75-0.02,15.51-0.03,23.26c0,1.37,0.28,2.35,0.84,2.95c0.56,0.6,1.41,0.89,2.54,0.89c1.13,0,1.98-0.3,2.55-0.9
			c0.56-0.6,0.85-1.58,0.84-2.95c0-7.75-0.01-15.5-0.01-23.25c-0.77,0-1.55,0-2.32,0c0-3.29,0-6.59,0-9.88
			c6.82,0,13.64,0,20.46,0.01c0.02,3.34,0.03,6.68,0.05,10.01c-1.16-0.02-2.33-0.04-3.49-0.05
			C158.4,321.42,158.43,328.2,158.46,334.99z"/>
		<path fill="#FFFFFF" d="M193.53,334.84c4.65,0.46,9.3,0.99,13.94,1.6c0.07,5.96,0.13,11.92,0.2,17.87c-0.77,0.4-1.7,0.79-2.8,1.19
			c-1.1,0.4-2.37,0.69-3.82,0.88c-1.45,0.2-3.09,0.28-4.94,0.26c-1.84-0.02-3.91-0.21-6.21-0.57c-3.43-0.54-6.53-1.43-9.3-2.69
			c-2.78-1.26-5.15-2.97-7.11-5.13c-1.97-2.17-3.48-4.85-4.56-8.06c-1.07-3.21-1.62-7.06-1.65-11.58
			c-0.03-4.47,0.47-8.27,1.49-11.41c1.02-3.14,2.49-5.7,4.38-7.66c1.9-1.97,4.21-3.42,6.95-4.33c2.73-0.92,5.78-1.39,9.14-1.39
			c2.32,0,4.38,0.15,6.21,0.46c1.82,0.31,3.45,0.71,4.91,1.18c1.45,0.48,2.73,1.03,3.84,1.66c1.11,0.63,2.09,1.23,2.95,1.8
			c0.06,5.75,0.13,11.49,0.19,17.24c-4.64-0.41-9.28-0.77-13.93-1.09c-0.02-1.57-0.03-3.15-0.05-4.72
			c-0.02-1.71-0.36-2.96-1.03-3.75c-0.67-0.79-1.66-1.21-2.97-1.25c-1.32-0.05-2.3,0.3-2.95,1.03c-0.65,0.73-0.97,1.92-0.95,3.58
			c0.06,6.45,0.13,12.9,0.19,19.36c0.02,1.67,0.36,2.91,1.03,3.73c0.67,0.82,1.66,1.31,2.98,1.47c1.32,0.16,2.31-0.09,2.96-0.77
			c0.65-0.68,0.97-1.87,0.95-3.58C193.57,338.38,193.55,336.61,193.53,334.84z"/>
		<path fill="#FFFFFF" d="M240.31,304.94c7.55,0.05,15.1,0.1,22.64,0.16c0,5.04,0,10.08,0,15.12c-1.15-0.12-2.3-0.24-3.46-0.35
			c0.02,13.54,0.04,27.08,0.05,40.62c1.13,0.4,2.27,0.81,3.4,1.23c0,5.04,0,10.08,0,15.12c-7.34-3.43-14.74-6.43-22.19-9.06
			c-0.03-4.42-0.06-8.83-0.1-13.25c0.98,0.27,1.95,0.55,2.92,0.83c-0.03-4.52-0.06-9.03-0.09-13.55c-2.87-0.61-5.75-1.19-8.63-1.74
			c0.04,4.31,0.07,8.62,0.11,12.93c0.98,0.25,1.95,0.51,2.93,0.77c0.03,4.35,0.07,8.7,0.1,13.05c-7.46-2.54-14.98-4.72-22.52-6.58
			c-0.04-3.9-0.09-7.79-0.13-11.69c1.16,0.23,2.32,0.46,3.47,0.7c-0.12-10.86-0.24-21.71-0.35-32.56c-1.16-0.07-2.32-0.13-3.48-0.2
			c-0.04-3.89-0.09-7.79-0.13-11.68c7.55,0.03,15.1,0.07,22.65,0.12c0.03,4.35,0.07,8.7,0.1,13.05c-0.98-0.08-1.96-0.15-2.95-0.22
			c0.03,3.97,0.07,7.94,0.1,11.91c2.88,0.39,5.77,0.8,8.65,1.24c-0.03-4.16-0.05-8.32-0.08-12.48c-0.98-0.08-1.96-0.16-2.95-0.24
			C240.37,313.77,240.34,309.35,240.31,304.94z"/>
	</g>
	<g display="none">
		<path display="inline" fill="#FFFFFF" d="M35.5,269.98c0-0.65-0.13-1.2-0.39-1.65c-0.26-0.45-0.67-0.68-1.21-0.68
			c-0.61,0-1.05,0.2-1.33,0.59c-0.28,0.39-0.42,0.83-0.42,1.32c0,0.71,0.23,1.27,0.68,1.68c0.45,0.41,1.02,0.77,1.71,1.07
			c0.69,0.3,1.42,0.61,2.21,0.92s1.52,0.72,2.21,1.23c0.69,0.5,1.26,1.17,1.71,1.98c0.45,0.82,0.68,1.88,0.68,3.19
			c0,2.3-0.66,3.97-1.97,5.01c-1.31,1.04-3.21,1.56-5.69,1.56c-1.17,0-2.21-0.09-3.1-0.29c-0.9-0.19-1.65-0.52-2.27-1
			s-1.08-1.1-1.41-1.86c-0.32-0.77-0.49-1.72-0.49-2.85v-0.76h5.45v0.52c0,0.93,0.17,1.58,0.51,1.95c0.34,0.37,0.79,0.56,1.33,0.56
			c0.58,0,1.03-0.2,1.35-0.6c0.31-0.4,0.47-0.9,0.47-1.48c0-0.71-0.22-1.27-0.65-1.68c-0.44-0.41-0.98-0.77-1.64-1.06
			s-1.37-0.59-2.13-0.89c-0.77-0.3-1.48-0.7-2.14-1.18c-0.66-0.49-1.2-1.12-1.64-1.91c-0.43-0.79-0.65-1.82-0.65-3.09
			c0-2.2,0.58-3.88,1.76-5.03c1.17-1.15,2.95-1.72,5.33-1.72c2.46,0,4.24,0.53,5.35,1.59c1.1,1.06,1.65,2.75,1.65,5.07H35.5V269.98z
			"/>
		<path display="inline" fill="#FFFFFF" d="M46.91,269.91c0.26-1.42,0.7-2.58,1.3-3.48c0.61-0.9,1.4-1.55,2.39-1.97
			c0.99-0.41,2.2-0.62,3.63-0.62s2.65,0.21,3.63,0.62c0.99,0.42,1.79,1.07,2.39,1.97c0.6,0.9,1.04,2.06,1.3,3.48
			c0.26,1.42,0.39,3.14,0.39,5.16c0,2.02-0.13,3.74-0.39,5.17c-0.26,1.42-0.7,2.58-1.3,3.48c-0.61,0.9-1.4,1.54-2.39,1.92
			c-0.99,0.38-2.2,0.57-3.63,0.57s-2.65-0.19-3.63-0.57c-0.99-0.38-1.79-1.02-2.39-1.92c-0.61-0.9-1.04-2.06-1.3-3.48
			c-0.26-1.42-0.39-3.15-0.39-5.17C46.52,273.05,46.65,271.33,46.91,269.91z M52.4,278.69c0.04,0.96,0.13,1.72,0.26,2.29
			c0.13,0.57,0.32,0.96,0.58,1.18c0.25,0.22,0.59,0.33,1.01,0.33s0.76-0.11,1.01-0.33c0.25-0.22,0.44-0.62,0.58-1.18
			c0.13-0.57,0.22-1.33,0.26-2.29c0.04-0.96,0.06-2.17,0.06-3.62c0-1.45-0.02-2.66-0.06-3.62c-0.04-0.96-0.13-1.72-0.26-2.29
			s-0.32-0.96-0.58-1.18c-0.25-0.22-0.59-0.33-1.01-0.33s-0.76,0.11-1.01,0.33c-0.25,0.22-0.44,0.62-0.58,1.18s-0.22,1.33-0.26,2.29
			c-0.04,0.96-0.06,2.16-0.06,3.62C52.33,276.52,52.35,277.73,52.4,278.69z"/>
		<path display="inline" fill="#FFFFFF" d="M73.2,279.86c0,1.05,0.15,1.75,0.45,2.11c0.3,0.35,0.72,0.53,1.24,0.53
			c0.52,0,0.94-0.18,1.24-0.53c0.3-0.35,0.46-1.06,0.46-2.11v-15.59h5.63v14.17c0,1.51-0.16,2.78-0.48,3.78
			c-0.32,1.01-0.79,1.82-1.41,2.42c-0.62,0.61-1.38,1.02-2.29,1.24c-0.91,0.22-1.96,0.33-3.15,0.33c-1.17,0-2.22-0.11-3.13-0.33
			c-0.92-0.22-1.69-0.63-2.3-1.24c-0.62-0.61-1.09-1.41-1.41-2.42c-0.32-1.01-0.48-2.27-0.48-3.78v-14.17h5.63V279.86z"/>
		<path display="inline" fill="#FFFFFF" d="M87.13,269.04v-4.78h14.05v4.78h-4.24v16.84h-5.63v-16.84H87.13z"/>
		<path display="inline" fill="#FFFFFF" d="M111.9,264.26v7.93h3.45v-7.93h5.63v21.62h-5.63v-8.9h-3.45v8.9h-5.63v-21.62H111.9z"/>
		<path display="inline" fill="#FFFFFF" d="M144.79,264.26v17.02h6.93v4.6h-12.57v-21.62H144.79z"/>
		<path display="inline" fill="#FFFFFF" d="M156.75,269.91c0.26-1.42,0.7-2.58,1.3-3.48c0.61-0.9,1.4-1.55,2.39-1.97
			c0.99-0.41,2.2-0.62,3.63-0.62s2.64,0.21,3.63,0.62c0.99,0.42,1.79,1.07,2.39,1.97c0.61,0.9,1.04,2.06,1.3,3.48
			c0.26,1.42,0.39,3.14,0.39,5.16c0,2.02-0.13,3.74-0.39,5.17c-0.26,1.42-0.7,2.58-1.3,3.48c-0.61,0.9-1.4,1.54-2.39,1.92
			c-0.99,0.38-2.2,0.57-3.63,0.57s-2.64-0.19-3.63-0.57s-1.79-1.02-2.39-1.92c-0.61-0.9-1.04-2.06-1.3-3.48
			c-0.26-1.42-0.39-3.15-0.39-5.17C156.36,273.05,156.49,271.33,156.75,269.91z M162.23,278.69c0.04,0.96,0.13,1.72,0.26,2.29
			c0.13,0.57,0.32,0.96,0.58,1.18c0.25,0.22,0.59,0.33,1.01,0.33s0.76-0.11,1.02-0.33c0.25-0.22,0.44-0.62,0.57-1.18
			c0.13-0.57,0.22-1.33,0.26-2.29c0.04-0.96,0.06-2.17,0.06-3.62c0-1.45-0.02-2.66-0.06-3.62c-0.04-0.96-0.13-1.72-0.26-2.29
			s-0.32-0.96-0.57-1.18c-0.25-0.22-0.59-0.33-1.02-0.33s-0.76,0.11-1.01,0.33c-0.25,0.22-0.44,0.62-0.58,1.18
			c-0.13,0.57-0.22,1.33-0.26,2.29c-0.04,0.96-0.06,2.16-0.06,3.62C162.17,276.52,162.19,277.73,162.23,278.69z"/>
		<path display="inline" fill="#FFFFFF" d="M183.94,264.26l3.63,13.32h0.06v-13.32h5.27v21.62h-6.18l-3.75-13.35h-0.06v13.35h-5.27
			v-21.62H183.94z"/>
		<path display="inline" fill="#FFFFFF" d="M207.57,264.26c1.63,0,2.91,0.3,3.81,0.89c0.91,0.6,1.59,1.39,2.04,2.39
			c0.46,1,0.73,2.15,0.83,3.45c0.1,1.3,0.15,2.66,0.15,4.07c0,1.41-0.05,2.77-0.15,4.07c-0.1,1.3-0.38,2.45-0.83,3.45
			c-0.45,1-1.13,1.8-2.04,2.39c-0.91,0.59-2.18,0.89-3.81,0.89h-8.18v-21.62H207.57z M206.14,281.82c0.54,0,0.98-0.08,1.3-0.23
			c0.32-0.15,0.57-0.47,0.74-0.95s0.28-1.17,0.33-2.06s0.08-2.06,0.08-3.51c0-1.45-0.02-2.62-0.08-3.51s-0.16-1.57-0.33-2.06
			c-0.17-0.48-0.42-0.8-0.74-0.95c-0.32-0.15-0.76-0.23-1.3-0.23h-1.12v13.51H206.14z"/>
		<path display="inline" fill="#FFFFFF" d="M220.34,269.91c0.26-1.42,0.7-2.58,1.3-3.48c0.61-0.9,1.4-1.55,2.39-1.97
			c0.99-0.41,2.2-0.62,3.63-0.62s2.64,0.21,3.63,0.62c0.99,0.42,1.79,1.07,2.39,1.97c0.61,0.9,1.04,2.06,1.3,3.48
			c0.26,1.42,0.39,3.14,0.39,5.16c0,2.02-0.13,3.74-0.39,5.17c-0.26,1.42-0.7,2.58-1.3,3.48c-0.61,0.9-1.4,1.54-2.39,1.92
			c-0.99,0.38-2.2,0.57-3.63,0.57s-2.65-0.19-3.63-0.57c-0.99-0.38-1.79-1.02-2.39-1.92c-0.61-0.9-1.04-2.06-1.3-3.48
			c-0.26-1.42-0.39-3.15-0.39-5.17C219.95,273.05,220.08,271.33,220.34,269.91z M225.83,278.69c0.04,0.96,0.12,1.72,0.26,2.29
			c0.13,0.57,0.32,0.96,0.57,1.18c0.25,0.22,0.59,0.33,1.01,0.33c0.42,0,0.76-0.11,1.01-0.33c0.25-0.22,0.44-0.62,0.57-1.18
			c0.13-0.57,0.22-1.33,0.26-2.29c0.04-0.96,0.06-2.17,0.06-3.62c0-1.45-0.02-2.66-0.06-3.62c-0.04-0.96-0.12-1.72-0.26-2.29
			c-0.13-0.57-0.32-0.96-0.57-1.18c-0.25-0.22-0.59-0.33-1.01-0.33c-0.42,0-0.76,0.11-1.01,0.33c-0.25,0.22-0.45,0.62-0.57,1.18
			c-0.13,0.57-0.22,1.33-0.26,2.29c-0.04,0.96-0.06,2.16-0.06,3.62C225.77,276.52,225.79,277.73,225.83,278.69z"/>
		<path display="inline" fill="#FFFFFF" d="M247.54,264.26l3.63,13.32h0.06v-13.32h5.27v21.62h-6.18l-3.76-13.35h-0.06v13.35h-5.27
			v-21.62H247.54z"/>
	</g>
	<g>
		<path fill="#FFFFFF" d="M29.96,278.29c0-0.67-0.14-1.24-0.41-1.72c-0.27-0.47-0.69-0.71-1.26-0.71c-0.63,0-1.09,0.2-1.38,0.61
			c-0.29,0.41-0.44,0.87-0.44,1.37c0,0.74,0.24,1.32,0.71,1.75c0.47,0.43,1.06,0.8,1.78,1.12c0.71,0.32,1.48,0.63,2.3,0.96
			c0.82,0.33,1.58,0.75,2.3,1.28c0.71,0.52,1.31,1.21,1.78,2.06c0.47,0.85,0.71,1.96,0.71,3.32c0,2.39-0.68,4.13-2.05,5.21
			c-1.36,1.08-3.34,1.62-5.92,1.62c-1.22,0-2.29-0.1-3.23-0.3s-1.72-0.54-2.36-1.04c-0.64-0.49-1.13-1.14-1.46-1.94
			c-0.34-0.8-0.5-1.78-0.5-2.96v-0.79h5.67v0.54c0,0.97,0.18,1.64,0.53,2.03c0.36,0.39,0.82,0.58,1.39,0.58
			c0.61,0,1.07-0.21,1.4-0.63c0.33-0.42,0.49-0.93,0.49-1.54c0-0.73-0.23-1.32-0.68-1.75s-1.02-0.8-1.7-1.1
			c-0.68-0.3-1.42-0.61-2.22-0.93s-1.54-0.72-2.22-1.23c-0.68-0.5-1.25-1.16-1.7-1.98c-0.45-0.82-0.68-1.89-0.68-3.21
			c0-2.29,0.61-4.03,1.83-5.22c1.22-1.2,3.06-1.79,5.54-1.79c2.56,0,4.41,0.55,5.55,1.65s1.72,2.86,1.72,5.27h-5.48V278.29z"/>
		<path fill="#FFFFFF" d="M42.08,278.21c0.27-1.48,0.72-2.69,1.35-3.62s1.46-1.62,2.49-2.05c1.03-0.43,2.29-0.65,3.78-0.65
			s2.75,0.22,3.78,0.65c1.03,0.43,1.86,1.11,2.49,2.05s1.08,2.14,1.35,3.62c0.27,1.48,0.41,3.27,0.41,5.37
			c0,2.1-0.14,3.89-0.41,5.37c-0.27,1.48-0.72,2.69-1.35,3.62s-1.46,1.6-2.49,2c-1.03,0.4-2.29,0.6-3.78,0.6s-2.75-0.2-3.78-0.6
			c-1.03-0.4-1.86-1.06-2.49-2s-1.08-2.14-1.35-3.62c-0.27-1.48-0.41-3.27-0.41-5.37C41.67,281.47,41.81,279.69,42.08,278.21z
			 M47.78,287.33c0.04,1,0.13,1.79,0.27,2.38c0.14,0.59,0.34,1,0.6,1.23c0.26,0.23,0.61,0.35,1.05,0.35c0.44,0,0.79-0.12,1.05-0.35
			c0.26-0.23,0.46-0.64,0.6-1.23c0.14-0.59,0.23-1.38,0.27-2.38c0.04-1,0.06-2.25,0.06-3.76s-0.02-2.76-0.06-3.76
			s-0.13-1.79-0.27-2.38c-0.14-0.59-0.34-1-0.6-1.23c-0.26-0.23-0.61-0.35-1.05-0.35c-0.44,0-0.79,0.12-1.05,0.35
			c-0.26,0.23-0.46,0.64-0.6,1.23c-0.14,0.59-0.23,1.38-0.27,2.38c-0.04,1-0.06,2.25-0.06,3.76S47.73,286.34,47.78,287.33z"/>
		<path fill="#FFFFFF" d="M69.65,288.54c0,1.09,0.16,1.82,0.47,2.19c0.31,0.37,0.74,0.55,1.29,0.55s0.98-0.18,1.29-0.55
			c0.31-0.37,0.47-1.1,0.47-2.19v-16.21h5.85v14.73c0,1.57-0.17,2.88-0.5,3.93c-0.34,1.05-0.82,1.89-1.46,2.52
			c-0.64,0.63-1.43,1.06-2.38,1.29s-2.04,0.35-3.27,0.35c-1.22,0-2.3-0.12-3.26-0.35c-0.96-0.23-1.75-0.66-2.39-1.29
			c-0.64-0.63-1.13-1.47-1.46-2.52c-0.34-1.05-0.5-2.36-0.5-3.93v-14.73h5.85V288.54z"/>
		<path fill="#FFFFFF" d="M84.38,277.31v-4.97h14.6v4.97h-4.41v17.5h-5.85v-17.5H84.38z"/>
		<path fill="#FFFFFF" d="M110.38,272.34v8.25h3.59v-8.25h5.85v22.47h-5.85v-9.25h-3.59v9.25h-5.85v-22.47H110.38z"/>
		<path fill="#FFFFFF" d="M145.06,272.34v17.69h7.21v4.78h-13.06v-22.47H145.06z"/>
		<path fill="#FFFFFF" d="M157.75,278.21c0.27-1.48,0.72-2.69,1.35-3.62c0.63-0.93,1.46-1.62,2.49-2.05
			c1.03-0.43,2.29-0.65,3.78-0.65s2.75,0.22,3.78,0.65c1.03,0.43,1.86,1.11,2.49,2.05s1.08,2.14,1.35,3.62
			c0.27,1.48,0.41,3.27,0.41,5.37c0,2.1-0.14,3.89-0.41,5.37c-0.27,1.48-0.72,2.69-1.35,3.62s-1.46,1.6-2.49,2
			c-1.03,0.4-2.29,0.6-3.78,0.6s-2.75-0.2-3.78-0.6c-1.03-0.4-1.86-1.06-2.49-2c-0.63-0.93-1.08-2.14-1.35-3.62
			s-0.41-3.27-0.41-5.37C157.34,281.47,157.47,279.69,157.75,278.21z M163.44,287.33c0.04,1,0.13,1.79,0.27,2.38
			c0.14,0.59,0.34,1,0.6,1.23c0.26,0.23,0.61,0.35,1.05,0.35c0.44,0,0.79-0.12,1.05-0.35c0.26-0.23,0.46-0.64,0.6-1.23
			c0.14-0.59,0.23-1.38,0.27-2.38c0.04-1,0.06-2.25,0.06-3.76s-0.02-2.76-0.06-3.76s-0.13-1.79-0.27-2.38
			c-0.14-0.59-0.34-1-0.6-1.23c-0.26-0.23-0.61-0.35-1.05-0.35c-0.44,0-0.79,0.12-1.05,0.35c-0.26,0.23-0.46,0.64-0.6,1.23
			c-0.14,0.59-0.23,1.38-0.27,2.38s-0.06,2.25-0.06,3.76S163.4,286.34,163.44,287.33z"/>
		<path fill="#FFFFFF" d="M186.26,272.34l3.78,13.85h0.06v-13.85h5.48v22.47h-6.42l-3.9-13.88h-0.06v13.88h-5.48v-22.47H186.26z"/>
		<path fill="#FFFFFF" d="M211.06,272.34c1.7,0,3.02,0.31,3.97,0.93c0.94,0.62,1.65,1.45,2.12,2.49c0.47,1.04,0.76,2.23,0.87,3.59
			c0.1,1.35,0.16,2.76,0.16,4.23s-0.05,2.88-0.16,4.23c-0.11,1.35-0.39,2.55-0.87,3.59c-0.47,1.04-1.18,1.87-2.12,2.49
			c-0.94,0.62-2.27,0.93-3.97,0.93h-8.5v-22.47H211.06z M209.58,290.59c0.57,0,1.02-0.08,1.35-0.24c0.34-0.16,0.59-0.49,0.77-0.99
			c0.18-0.5,0.29-1.22,0.35-2.14s0.08-2.14,0.08-3.65s-0.03-2.73-0.08-3.65c-0.05-0.92-0.17-1.64-0.35-2.14
			c-0.18-0.5-0.44-0.83-0.77-0.99s-0.79-0.24-1.35-0.24h-1.16v14.04H209.58z"/>
		<path fill="#FFFFFF" d="M224.6,278.21c0.27-1.48,0.72-2.69,1.35-3.62s1.46-1.62,2.49-2.05s2.29-0.65,3.78-0.65
			c1.49,0,2.75,0.22,3.78,0.65s1.86,1.11,2.49,2.05c0.63,0.93,1.08,2.14,1.35,3.62c0.27,1.48,0.41,3.27,0.41,5.37
			c0,2.1-0.14,3.89-0.41,5.37c-0.27,1.48-0.72,2.69-1.35,3.62c-0.63,0.93-1.46,1.6-2.49,2s-2.29,0.6-3.78,0.6
			c-1.49,0-2.75-0.2-3.78-0.6s-1.86-1.06-2.49-2s-1.08-2.14-1.35-3.62c-0.27-1.48-0.41-3.27-0.41-5.37
			C224.19,281.47,224.32,279.69,224.6,278.21z M230.29,287.33c0.04,1,0.13,1.79,0.27,2.38c0.14,0.59,0.34,1,0.6,1.23
			s0.61,0.35,1.05,0.35c0.44,0,0.79-0.12,1.05-0.35c0.26-0.23,0.46-0.64,0.6-1.23c0.14-0.59,0.23-1.38,0.27-2.38
			c0.04-1,0.06-2.25,0.06-3.76s-0.02-2.76-0.06-3.76c-0.04-1-0.13-1.79-0.27-2.38c-0.14-0.59-0.34-1-0.6-1.23
			c-0.26-0.23-0.61-0.35-1.05-0.35c-0.44,0-0.79,0.12-1.05,0.35c-0.26,0.23-0.46,0.64-0.6,1.23c-0.14,0.59-0.22,1.38-0.27,2.38
			s-0.06,2.25-0.06,3.76S230.25,286.34,230.29,287.33z"/>
		<path fill="#FFFFFF" d="M253.11,272.34l3.78,13.85h0.06v-13.85h5.48v22.47h-6.42l-3.9-13.88h-0.06v13.88h-5.48v-22.47H253.11z"/>
	</g>
</g>
</svg>
